<mxfile host="Electron" agent="Mozilla/5.0 (Macintosh; Intel Mac OS X 10_15_7) AppleWebKit/537.36 (KHTML, like Gecko) draw.io/28.0.6 Chrome/138.0.7204.100 Electron/37.2.3 Safari/537.36" version="28.0.6">
  <diagram name="Page-1" id="0os1Ddw3twcFgZpuOC4W">
    <mxGraphModel dx="1113" dy="799" grid="1" gridSize="10" guides="1" tooltips="1" connect="1" arrows="1" fold="1" page="1" pageScale="1" pageWidth="850" pageHeight="1100" math="0" shadow="0">
      <root>
        <mxCell id="0" />
        <mxCell id="1" parent="0" />
        <mxCell id="a0LhWKAYVeHDH6EkUvZ8-67" value="" style="rounded=1;whiteSpace=wrap;html=1;sketch=1;hachureGap=4;jiggle=2;curveFitting=1;fontFamily=Times New Roman;fillColor=#e3c800;strokeColor=#B09500;fontColor=#000000;fontSize=23;" vertex="1" parent="1">
          <mxGeometry x="10" y="820" width="620" height="110" as="geometry" />
        </mxCell>
        <mxCell id="a0LhWKAYVeHDH6EkUvZ8-66" value="" style="rounded=1;whiteSpace=wrap;html=1;sketch=1;hachureGap=4;jiggle=2;curveFitting=1;fontFamily=Times New Roman;fillColor=#ffe6cc;strokeColor=#d79b00;fontSize=23;" vertex="1" parent="1">
          <mxGeometry x="20" y="500" width="800" height="130" as="geometry" />
        </mxCell>
        <mxCell id="a0LhWKAYVeHDH6EkUvZ8-1" value="&lt;span style=&quot;caret-color: rgb(0, 122, 255); color: rgb(51, 51, 51); orphans: 4; text-align: left; white-space-collapse: preserve;&quot;&gt;_attach_device&lt;/span&gt;" style="rounded=1;whiteSpace=wrap;html=1;sketch=1;hachureGap=4;jiggle=2;curveFitting=1;fontFamily=Times New Roman;labelBackgroundColor=none;fontSize=23;fillColor=#60a917;fontColor=#ffffff;strokeColor=#2D7600;" vertex="1" parent="1">
          <mxGeometry x="407" y="350" width="180" height="60" as="geometry" />
        </mxCell>
        <mxCell id="a0LhWKAYVeHDH6EkUvZ8-3" value="" style="edgeStyle=orthogonalEdgeStyle;rounded=0;sketch=1;hachureGap=4;jiggle=2;curveFitting=1;orthogonalLoop=1;jettySize=auto;html=1;fontFamily=Times New Roman;labelBackgroundColor=none;fontColor=default;fontSize=23;" edge="1" parent="1" target="a0LhWKAYVeHDH6EkUvZ8-1">
          <mxGeometry relative="1" as="geometry">
            <mxPoint x="497" y="310" as="sourcePoint" />
          </mxGeometry>
        </mxCell>
        <mxCell id="a0LhWKAYVeHDH6EkUvZ8-2" value="&lt;span style=&quot;caret-color: rgb(0, 122, 255); color: rgb(51, 51, 51); orphans: 4; text-align: left; white-space-collapse: preserve;&quot;&gt;continue_backup&lt;/span&gt;" style="rounded=1;whiteSpace=wrap;html=1;sketch=1;hachureGap=4;jiggle=2;curveFitting=1;fontFamily=Times New Roman;labelBackgroundColor=none;fontSize=23;fillColor=#bac8d3;strokeColor=#23445d;" vertex="1" parent="1">
          <mxGeometry x="407" y="250" width="185" height="60" as="geometry" />
        </mxCell>
        <mxCell id="a0LhWKAYVeHDH6EkUvZ8-4" value="" style="shape=table;startSize=0;container=1;collapsible=0;childLayout=tableLayout;fontSize=23;sketch=1;hachureGap=4;jiggle=2;curveFitting=1;fontFamily=Times New Roman;labelBackgroundColor=none;fillColor=#f8cecc;strokeColor=#b85450;" vertex="1" parent="1">
          <mxGeometry x="110" y="250" width="190" height="120" as="geometry" />
        </mxCell>
        <mxCell id="a0LhWKAYVeHDH6EkUvZ8-5" value="" style="shape=tableRow;horizontal=0;startSize=0;swimlaneHead=0;swimlaneBody=0;top=0;left=0;bottom=0;right=0;collapsible=0;dropTarget=0;fillColor=none;points=[[0,0.5],[1,0.5]];portConstraint=eastwest;fontSize=23;sketch=1;hachureGap=4;jiggle=2;curveFitting=1;fontFamily=Times New Roman;labelBackgroundColor=none;" vertex="1" parent="a0LhWKAYVeHDH6EkUvZ8-4">
          <mxGeometry width="190" height="40" as="geometry" />
        </mxCell>
        <mxCell id="a0LhWKAYVeHDH6EkUvZ8-6" value="RPC context" style="shape=partialRectangle;html=1;whiteSpace=wrap;connectable=0;overflow=hidden;fillColor=none;top=0;left=0;bottom=0;right=0;pointerEvents=1;fontSize=23;sketch=1;hachureGap=4;jiggle=2;curveFitting=1;fontFamily=Times New Roman;labelBackgroundColor=none;" vertex="1" parent="a0LhWKAYVeHDH6EkUvZ8-5">
          <mxGeometry width="190" height="40" as="geometry">
            <mxRectangle width="190" height="40" as="alternateBounds" />
          </mxGeometry>
        </mxCell>
        <mxCell id="a0LhWKAYVeHDH6EkUvZ8-9" value="" style="shape=tableRow;horizontal=0;startSize=0;swimlaneHead=0;swimlaneBody=0;top=0;left=0;bottom=0;right=0;collapsible=0;dropTarget=0;fillColor=none;points=[[0,0.5],[1,0.5]];portConstraint=eastwest;fontSize=23;sketch=1;hachureGap=4;jiggle=2;curveFitting=1;fontFamily=Times New Roman;labelBackgroundColor=none;" vertex="1" parent="a0LhWKAYVeHDH6EkUvZ8-4">
          <mxGeometry y="40" width="190" height="40" as="geometry" />
        </mxCell>
        <mxCell id="a0LhWKAYVeHDH6EkUvZ8-10" value="backup_device" style="shape=partialRectangle;html=1;whiteSpace=wrap;connectable=0;overflow=hidden;fillColor=none;top=0;left=0;bottom=0;right=0;pointerEvents=1;fontSize=23;sketch=1;hachureGap=4;jiggle=2;curveFitting=1;fontFamily=Times New Roman;labelBackgroundColor=none;" vertex="1" parent="a0LhWKAYVeHDH6EkUvZ8-9">
          <mxGeometry width="190" height="40" as="geometry">
            <mxRectangle width="190" height="40" as="alternateBounds" />
          </mxGeometry>
        </mxCell>
        <mxCell id="a0LhWKAYVeHDH6EkUvZ8-26" style="shape=tableRow;horizontal=0;startSize=0;swimlaneHead=0;swimlaneBody=0;top=0;left=0;bottom=0;right=0;collapsible=0;dropTarget=0;fillColor=none;points=[[0,0.5],[1,0.5]];portConstraint=eastwest;fontSize=23;sketch=1;hachureGap=4;jiggle=2;curveFitting=1;fontFamily=Times New Roman;labelBackgroundColor=none;" vertex="1" parent="a0LhWKAYVeHDH6EkUvZ8-4">
          <mxGeometry y="80" width="190" height="40" as="geometry" />
        </mxCell>
        <mxCell id="a0LhWKAYVeHDH6EkUvZ8-27" value="connector_properties" style="shape=partialRectangle;html=1;whiteSpace=wrap;connectable=0;overflow=hidden;fillColor=none;top=0;left=0;bottom=0;right=0;pointerEvents=1;fontSize=23;sketch=1;hachureGap=4;jiggle=2;curveFitting=1;fontFamily=Times New Roman;labelBackgroundColor=none;" vertex="1" parent="a0LhWKAYVeHDH6EkUvZ8-26">
          <mxGeometry width="190" height="40" as="geometry">
            <mxRectangle width="190" height="40" as="alternateBounds" />
          </mxGeometry>
        </mxCell>
        <mxCell id="a0LhWKAYVeHDH6EkUvZ8-39" value="" style="edgeStyle=orthogonalEdgeStyle;rounded=0;sketch=1;hachureGap=4;jiggle=2;curveFitting=1;orthogonalLoop=1;jettySize=auto;html=1;fontFamily=Times New Roman;labelBackgroundColor=none;fontSize=23;" edge="1" parent="1" source="a0LhWKAYVeHDH6EkUvZ8-32" target="a0LhWKAYVeHDH6EkUvZ8-36">
          <mxGeometry relative="1" as="geometry" />
        </mxCell>
        <mxCell id="a0LhWKAYVeHDH6EkUvZ8-32" value="_attach_volume" style="rounded=1;whiteSpace=wrap;html=1;sketch=1;hachureGap=4;jiggle=2;curveFitting=1;fontFamily=Times New Roman;labelBackgroundColor=none;fontSize=23;fillColor=#fff2cc;strokeColor=#d6b656;" vertex="1" parent="1">
          <mxGeometry x="272.5" y="430" width="155" height="60" as="geometry" />
        </mxCell>
        <mxCell id="a0LhWKAYVeHDH6EkUvZ8-38" value="" style="edgeStyle=orthogonalEdgeStyle;rounded=0;sketch=1;hachureGap=4;jiggle=2;curveFitting=1;orthogonalLoop=1;jettySize=auto;html=1;fontFamily=Times New Roman;labelBackgroundColor=none;fontSize=23;" edge="1" parent="1" source="a0LhWKAYVeHDH6EkUvZ8-33" target="a0LhWKAYVeHDH6EkUvZ8-37">
          <mxGeometry relative="1" as="geometry" />
        </mxCell>
        <mxCell id="a0LhWKAYVeHDH6EkUvZ8-33" value="_attach_snapshot" style="rounded=1;whiteSpace=wrap;html=1;sketch=1;hachureGap=4;jiggle=2;curveFitting=1;fontFamily=Times New Roman;labelBackgroundColor=none;fontSize=23;fillColor=#fff2cc;strokeColor=#d6b656;" vertex="1" parent="1">
          <mxGeometry x="567.5" y="430" width="185" height="60" as="geometry" />
        </mxCell>
        <mxCell id="a0LhWKAYVeHDH6EkUvZ8-34" value="" style="endArrow=classic;html=1;rounded=0;sketch=1;hachureGap=4;jiggle=2;curveFitting=1;fontFamily=Times New Roman;labelBackgroundColor=none;fontSize=23;" edge="1" parent="1">
          <mxGeometry width="50" height="50" relative="1" as="geometry">
            <mxPoint x="395" y="390" as="sourcePoint" />
            <mxPoint x="350" y="430" as="targetPoint" />
          </mxGeometry>
        </mxCell>
        <mxCell id="a0LhWKAYVeHDH6EkUvZ8-35" value="" style="endArrow=classic;html=1;rounded=0;sketch=1;hachureGap=4;jiggle=2;curveFitting=1;fontFamily=Times New Roman;labelBackgroundColor=none;fontSize=23;" edge="1" parent="1">
          <mxGeometry width="50" height="50" relative="1" as="geometry">
            <mxPoint x="600" y="380" as="sourcePoint" />
            <mxPoint x="637.5" y="420" as="targetPoint" />
          </mxGeometry>
        </mxCell>
        <mxCell id="a0LhWKAYVeHDH6EkUvZ8-36" value="initialize_connection" style="rounded=1;whiteSpace=wrap;html=1;sketch=1;hachureGap=4;jiggle=2;curveFitting=1;fontFamily=Times New Roman;labelBackgroundColor=none;fontSize=23;fillColor=#ffe6cc;strokeColor=#d79b00;" vertex="1" parent="1">
          <mxGeometry x="240" y="530" width="220" height="60" as="geometry" />
        </mxCell>
        <mxCell id="a0LhWKAYVeHDH6EkUvZ8-37" value="initialize_connection_snapshot" style="rounded=1;whiteSpace=wrap;html=1;sketch=1;hachureGap=4;jiggle=2;curveFitting=1;fontFamily=Times New Roman;labelBackgroundColor=none;fontSize=23;fillColor=#ffe6cc;strokeColor=#d79b00;" vertex="1" parent="1">
          <mxGeometry x="517.5" y="530" width="285" height="60" as="geometry" />
        </mxCell>
        <mxCell id="a0LhWKAYVeHDH6EkUvZ8-55" value="" style="edgeStyle=orthogonalEdgeStyle;rounded=0;sketch=1;hachureGap=4;jiggle=2;curveFitting=1;orthogonalLoop=1;jettySize=auto;html=1;fontFamily=Times New Roman;labelBackgroundColor=none;fontSize=23;" edge="1" parent="1" source="a0LhWKAYVeHDH6EkUvZ8-40" target="a0LhWKAYVeHDH6EkUvZ8-54">
          <mxGeometry relative="1" as="geometry" />
        </mxCell>
        <mxCell id="a0LhWKAYVeHDH6EkUvZ8-40" value="&lt;span style=&quot;caret-color: rgb(0, 122, 255); color: rgb(51, 51, 51); orphans: 4; text-align: left; white-space-collapse: preserve;&quot;&gt;_connect_device&lt;/span&gt;" style="rounded=1;whiteSpace=wrap;html=1;sketch=1;hachureGap=4;jiggle=2;curveFitting=1;fontFamily=Times New Roman;labelBackgroundColor=none;fontSize=23;fillColor=#bac8d3;strokeColor=#23445d;" vertex="1" parent="1">
          <mxGeometry x="395" y="650" width="205" height="60" as="geometry" />
        </mxCell>
        <mxCell id="a0LhWKAYVeHDH6EkUvZ8-41" value="" style="endArrow=none;html=1;rounded=0;sketch=1;hachureGap=4;jiggle=2;curveFitting=1;fontFamily=Times New Roman;exitX=0.5;exitY=0;exitDx=0;exitDy=0;startArrow=classic;startFill=1;endFill=0;labelBackgroundColor=none;fontSize=23;" edge="1" parent="1">
          <mxGeometry width="50" height="50" relative="1" as="geometry">
            <mxPoint x="402.5" y="640" as="sourcePoint" />
            <mxPoint x="357.5" y="600" as="targetPoint" />
          </mxGeometry>
        </mxCell>
        <mxCell id="a0LhWKAYVeHDH6EkUvZ8-43" value="" style="endArrow=none;html=1;rounded=0;sketch=1;hachureGap=4;jiggle=2;curveFitting=1;fontFamily=Times New Roman;exitX=0.5;exitY=0;exitDx=0;exitDy=0;startArrow=classic;startFill=1;endFill=0;labelBackgroundColor=none;fontSize=23;" edge="1" parent="1">
          <mxGeometry width="50" height="50" relative="1" as="geometry">
            <mxPoint x="577.5" y="640" as="sourcePoint" />
            <mxPoint x="640" y="600" as="targetPoint" />
          </mxGeometry>
        </mxCell>
        <mxCell id="a0LhWKAYVeHDH6EkUvZ8-46" value="Volume" style="strokeWidth=2;html=1;shape=mxgraph.flowchart.database;whiteSpace=wrap;sketch=1;hachureGap=4;jiggle=2;curveFitting=1;fontFamily=Times New Roman;labelBackgroundColor=none;fontSize=23;fillColor=#dae8fc;strokeColor=#6c8ebf;" vertex="1" parent="1">
          <mxGeometry x="41.88" y="512.5" width="98.75" height="95" as="geometry" />
        </mxCell>
        <mxCell id="a0LhWKAYVeHDH6EkUvZ8-57" value="" style="edgeStyle=orthogonalEdgeStyle;rounded=0;sketch=1;hachureGap=4;jiggle=2;curveFitting=1;orthogonalLoop=1;jettySize=auto;html=1;fontFamily=Times New Roman;labelBackgroundColor=none;fontSize=23;fillColor=#e51400;strokeColor=#B20000;" edge="1" parent="1" source="a0LhWKAYVeHDH6EkUvZ8-54" target="a0LhWKAYVeHDH6EkUvZ8-56">
          <mxGeometry relative="1" as="geometry" />
        </mxCell>
        <mxCell id="a0LhWKAYVeHDH6EkUvZ8-54" value="connector" style="whiteSpace=wrap;html=1;fontFamily=Times New Roman;rounded=1;sketch=1;hachureGap=4;jiggle=2;curveFitting=1;labelBackgroundColor=none;fontSize=23;fillColor=#f8cecc;strokeColor=#b85450;" vertex="1" parent="1">
          <mxGeometry x="437.5" y="750" width="120" height="60" as="geometry" />
        </mxCell>
        <mxCell id="a0LhWKAYVeHDH6EkUvZ8-56" value="connect_volume" style="whiteSpace=wrap;html=1;fontFamily=Times New Roman;rounded=1;sketch=1;hachureGap=4;jiggle=2;curveFitting=1;labelBackgroundColor=none;fontSize=23;fillColor=#fa6800;strokeColor=#C73500;fontColor=#000000;" vertex="1" parent="1">
          <mxGeometry x="417.5" y="850" width="160" height="60" as="geometry" />
        </mxCell>
        <mxCell id="a0LhWKAYVeHDH6EkUvZ8-58" value="backup.host" style="strokeWidth=2;html=1;shape=mxgraph.flowchart.database;whiteSpace=wrap;sketch=1;hachureGap=4;jiggle=2;curveFitting=1;fontFamily=Times New Roman;labelBackgroundColor=none;fontSize=23;fillColor=#b1ddf0;strokeColor=#10739e;" vertex="1" parent="1">
          <mxGeometry x="30" y="830" width="140" height="90" as="geometry" />
        </mxCell>
        <mxCell id="a0LhWKAYVeHDH6EkUvZ8-63" value="" style="endArrow=classic;html=1;rounded=0;sketch=1;hachureGap=4;jiggle=2;curveFitting=1;fontFamily=Times New Roman;dashed=1;fillColor=#1ba1e2;strokeColor=#006EAF;strokeWidth=2;fontSize=23;" edge="1" parent="1">
          <mxGeometry width="50" height="50" relative="1" as="geometry">
            <mxPoint x="87.5" y="620" as="sourcePoint" />
            <mxPoint x="87.5" y="800" as="targetPoint" />
          </mxGeometry>
        </mxCell>
        <mxCell id="a0LhWKAYVeHDH6EkUvZ8-71" style="edgeStyle=orthogonalEdgeStyle;rounded=0;sketch=1;hachureGap=4;jiggle=2;curveFitting=1;orthogonalLoop=1;jettySize=auto;html=1;exitX=0.5;exitY=1;exitDx=0;exitDy=0;entryX=0.545;entryY=0.997;entryDx=0;entryDy=0;entryPerimeter=0;fontFamily=Architects Daughter;fontSource=https%3A%2F%2Ffonts.googleapis.com%2Fcss%3Ffamily%3DArchitects%2BDaughter;" edge="1" parent="1" source="a0LhWKAYVeHDH6EkUvZ8-36" target="a0LhWKAYVeHDH6EkUvZ8-36">
          <mxGeometry relative="1" as="geometry" />
        </mxCell>
        <mxCell id="a0LhWKAYVeHDH6EkUvZ8-72" value="RPC" style="triangle;whiteSpace=wrap;html=1;sketch=1;hachureGap=4;jiggle=2;curveFitting=1;fontFamily=Times New Roman;fillColor=#fa6800;fontColor=#000000;strokeColor=#C73500;fontSize=23;" vertex="1" parent="1">
          <mxGeometry x="160" y="521.25" width="70" height="77.5" as="geometry" />
        </mxCell>
      </root>
    </mxGraphModel>
  </diagram>
</mxfile>
